<svg width="52" height="52" viewBox="0 0 52 52" fill="none" xmlns="http://www.w3.org/2000/svg">
<circle cx="26" cy="26" r="26" fill="#5ECE7B"/>
<path d="M37.4736 19.8484C37.0186 19.2925 36.3109 18.9546 35.5785 18.9546H20.1907L19.711 17.1669C19.4326 16.1277 18.4732 15.4028 17.3608 15.4028H14.7837C14.3544 15.4028 14 15.7407 14 16.1523C14 16.5628 14.3534 16.9017 14.7837 16.9017H17.3608C17.7398 16.9017 18.0685 17.1433 18.1692 17.5058L21.2517 29.2494C21.53 30.2886 22.4894 31.0135 23.6018 31.0135H33.6833C34.7947 31.0135 35.7808 30.2886 36.0335 29.2494L37.9286 21.807C38.1053 21.1293 37.9543 20.4044 37.4736 19.8485L37.4736 19.8484ZM36.3879 21.4671L34.4928 28.9095C34.3921 29.272 34.0634 29.5136 33.6844 29.5136H23.6018C23.2228 29.5136 22.8941 29.272 22.7935 28.9095L20.5953 20.4772H35.5796C35.8323 20.4772 36.085 20.598 36.237 20.7915C36.388 20.984 36.463 21.2257 36.388 21.4673L36.3879 21.4671Z" fill="white"/>
<path d="M24.1332 31.978C22.6932 31.978 21.5059 33.1135 21.5059 34.4905C21.5059 35.8675 22.6933 37.0029 24.1332 37.0029C25.5733 37.0039 26.7606 35.8684 26.7606 34.4912C26.7606 33.114 25.5732 31.9778 24.1332 31.9778V31.978ZM24.1332 35.4816C23.5519 35.4816 23.0968 35.0465 23.0968 34.4906C23.0968 33.9346 23.5519 33.4995 24.1332 33.4995C24.7146 33.4995 25.1696 33.9346 25.1696 34.4906C25.1687 35.0229 24.689 35.4816 24.1332 35.4816Z" fill="white"/>
<path d="M32.825 31.9778C31.3849 31.9778 30.1976 33.1132 30.1976 34.4902C30.1976 35.8672 31.385 37.0027 32.825 37.0027C34.265 37.0027 35.4524 35.8672 35.4524 34.4902C35.4277 33.1141 34.265 31.9778 32.825 31.9778ZM32.825 35.4814C32.2437 35.4814 31.7886 35.0463 31.7886 34.4903C31.7886 33.9344 32.2437 33.4993 32.825 33.4993C33.4064 33.4993 33.8614 33.9344 33.8614 34.4903C33.8614 35.0227 33.3807 35.4814 32.825 35.4814Z" fill="white"/>
</svg>
